<mxfile host="app.diagrams.net" agent="Mozilla/5.0 (X11; Linux x86_64; rv:133.0) Gecko/20100101 Firefox/133.0" version="25.0.1">
  <diagram name="Page-1" id="FGmeKxKgPcKXuZ4-pylQ">
    <mxGraphModel dx="1414" dy="770" grid="1" gridSize="10" guides="1" tooltips="1" connect="1" arrows="1" fold="1" page="1" pageScale="1" pageWidth="850" pageHeight="1100" math="0" shadow="0">
      <root>
        <mxCell id="0" />
        <mxCell id="1" parent="0" />
        <mxCell id="R6okjfki8fJjkLBU8PFX-6" style="edgeStyle=orthogonalEdgeStyle;rounded=0;orthogonalLoop=1;jettySize=auto;html=1;entryX=0.5;entryY=0;entryDx=0;entryDy=0;" edge="1" parent="1" source="R6okjfki8fJjkLBU8PFX-7" target="R6okjfki8fJjkLBU8PFX-9">
          <mxGeometry relative="1" as="geometry" />
        </mxCell>
        <mxCell id="R6okjfki8fJjkLBU8PFX-7" value="&lt;font style=&quot;font-size: 21px;&quot;&gt;Start&lt;/font&gt;" style="rounded=1;whiteSpace=wrap;html=1;glass=0;shadow=0;arcSize=50;" vertex="1" parent="1">
          <mxGeometry x="370" y="10" width="130" height="60" as="geometry" />
        </mxCell>
        <mxCell id="R6okjfki8fJjkLBU8PFX-8" value="" style="edgeStyle=orthogonalEdgeStyle;rounded=0;orthogonalLoop=1;jettySize=auto;html=1;" edge="1" parent="1" source="R6okjfki8fJjkLBU8PFX-9" target="R6okjfki8fJjkLBU8PFX-11">
          <mxGeometry relative="1" as="geometry" />
        </mxCell>
        <mxCell id="R6okjfki8fJjkLBU8PFX-9" value="&lt;div&gt;&lt;font style=&quot;font-size: 14px;&quot;&gt;Email,&lt;/font&gt;&lt;/div&gt;&lt;div&gt;&lt;font style=&quot;font-size: 14px;&quot;&gt;Login&lt;/font&gt;&lt;/div&gt;" style="shape=parallelogram;perimeter=parallelogramPerimeter;whiteSpace=wrap;html=1;fixedSize=1;size=12.5;" vertex="1" parent="1">
          <mxGeometry x="367.5" y="90" width="135" height="60" as="geometry" />
        </mxCell>
        <mxCell id="R6okjfki8fJjkLBU8PFX-10" style="edgeStyle=orthogonalEdgeStyle;rounded=0;orthogonalLoop=1;jettySize=auto;html=1;entryX=0.5;entryY=0;entryDx=0;entryDy=0;" edge="1" parent="1" source="R6okjfki8fJjkLBU8PFX-11" target="R6okjfki8fJjkLBU8PFX-27">
          <mxGeometry relative="1" as="geometry" />
        </mxCell>
        <mxCell id="R6okjfki8fJjkLBU8PFX-11" value="&lt;font style=&quot;font-size: 14px;&quot;&gt;Validation&lt;br&gt;&lt;/font&gt;" style="whiteSpace=wrap;html=1;" vertex="1" parent="1">
          <mxGeometry x="375" y="170" width="120" height="60" as="geometry" />
        </mxCell>
        <mxCell id="R6okjfki8fJjkLBU8PFX-12" value="" style="edgeStyle=orthogonalEdgeStyle;rounded=0;orthogonalLoop=1;jettySize=auto;html=1;" edge="1" parent="1" source="R6okjfki8fJjkLBU8PFX-13" target="R6okjfki8fJjkLBU8PFX-15">
          <mxGeometry relative="1" as="geometry" />
        </mxCell>
        <mxCell id="R6okjfki8fJjkLBU8PFX-13" value="Database record selection by login" style="whiteSpace=wrap;html=1;" vertex="1" parent="1">
          <mxGeometry x="462.81" y="410" width="120" height="60" as="geometry" />
        </mxCell>
        <mxCell id="R6okjfki8fJjkLBU8PFX-14" value="" style="edgeStyle=orthogonalEdgeStyle;rounded=0;orthogonalLoop=1;jettySize=auto;html=1;" edge="1" parent="1" source="R6okjfki8fJjkLBU8PFX-15" target="R6okjfki8fJjkLBU8PFX-20">
          <mxGeometry relative="1" as="geometry" />
        </mxCell>
        <mxCell id="R6okjfki8fJjkLBU8PFX-15" value="&lt;div&gt;Request result&lt;/div&gt;&lt;div&gt;status&lt;br&gt;&lt;/div&gt;" style="shape=parallelogram;perimeter=parallelogramPerimeter;whiteSpace=wrap;html=1;fixedSize=1;size=15;" vertex="1" parent="1">
          <mxGeometry x="462.81" y="490" width="120" height="60" as="geometry" />
        </mxCell>
        <mxCell id="R6okjfki8fJjkLBU8PFX-16" style="edgeStyle=orthogonalEdgeStyle;rounded=0;orthogonalLoop=1;jettySize=auto;html=1;" edge="1" parent="1" source="R6okjfki8fJjkLBU8PFX-20" target="R6okjfki8fJjkLBU8PFX-22">
          <mxGeometry relative="1" as="geometry">
            <mxPoint x="685" y="269.9999999999999" as="targetPoint" />
          </mxGeometry>
        </mxCell>
        <mxCell id="R6okjfki8fJjkLBU8PFX-17" value="&lt;div&gt;No&lt;/div&gt;" style="edgeLabel;html=1;align=center;verticalAlign=middle;resizable=0;points=[];" vertex="1" connectable="0" parent="R6okjfki8fJjkLBU8PFX-16">
          <mxGeometry x="-0.7344" relative="1" as="geometry">
            <mxPoint as="offset" />
          </mxGeometry>
        </mxCell>
        <mxCell id="R6okjfki8fJjkLBU8PFX-18" value="" style="edgeStyle=orthogonalEdgeStyle;rounded=0;orthogonalLoop=1;jettySize=auto;html=1;entryX=0.5;entryY=0;entryDx=0;entryDy=0;" edge="1" parent="1" target="R6okjfki8fJjkLBU8PFX-36">
          <mxGeometry relative="1" as="geometry">
            <mxPoint x="480.00000000000045" y="610.0000000000002" as="sourcePoint" />
            <mxPoint x="435" y="680.0000000000002" as="targetPoint" />
            <Array as="points">
              <mxPoint x="435" y="610" />
            </Array>
          </mxGeometry>
        </mxCell>
        <mxCell id="R6okjfki8fJjkLBU8PFX-19" value="Yes" style="edgeLabel;html=1;align=center;verticalAlign=middle;resizable=0;points=[];" vertex="1" connectable="0" parent="R6okjfki8fJjkLBU8PFX-18">
          <mxGeometry x="-0.46" y="3" relative="1" as="geometry">
            <mxPoint as="offset" />
          </mxGeometry>
        </mxCell>
        <mxCell id="R6okjfki8fJjkLBU8PFX-20" value="result status &lt;br&gt;is success?" style="rhombus;whiteSpace=wrap;html=1;" vertex="1" parent="1">
          <mxGeometry x="460" y="570" width="125.62" height="80" as="geometry" />
        </mxCell>
        <mxCell id="R6okjfki8fJjkLBU8PFX-21" style="edgeStyle=orthogonalEdgeStyle;rounded=0;orthogonalLoop=1;jettySize=auto;html=1;" edge="1" parent="1" source="R6okjfki8fJjkLBU8PFX-22">
          <mxGeometry relative="1" as="geometry">
            <mxPoint x="440" y="80" as="targetPoint" />
            <Array as="points">
              <mxPoint x="720" y="80" />
            </Array>
          </mxGeometry>
        </mxCell>
        <mxCell id="R6okjfki8fJjkLBU8PFX-22" value="Warning (&quot;The error occurred, please try again&quot;)" style="rounded=0;whiteSpace=wrap;html=1;" vertex="1" parent="1">
          <mxGeometry x="657.81" y="509.9999999999999" width="120" height="60" as="geometry" />
        </mxCell>
        <mxCell id="R6okjfki8fJjkLBU8PFX-23" style="edgeStyle=orthogonalEdgeStyle;rounded=0;orthogonalLoop=1;jettySize=auto;html=1;entryX=0.5;entryY=0;entryDx=0;entryDy=0;" edge="1" parent="1" source="R6okjfki8fJjkLBU8PFX-27" target="R6okjfki8fJjkLBU8PFX-13">
          <mxGeometry relative="1" as="geometry">
            <Array as="points">
              <mxPoint x="523" y="290" />
            </Array>
          </mxGeometry>
        </mxCell>
        <mxCell id="R6okjfki8fJjkLBU8PFX-24" value="&lt;div&gt;Yes&lt;/div&gt;" style="edgeLabel;html=1;align=center;verticalAlign=middle;resizable=0;points=[];" vertex="1" connectable="0" parent="R6okjfki8fJjkLBU8PFX-23">
          <mxGeometry x="-0.8149" relative="1" as="geometry">
            <mxPoint as="offset" />
          </mxGeometry>
        </mxCell>
        <mxCell id="R6okjfki8fJjkLBU8PFX-25" style="edgeStyle=orthogonalEdgeStyle;rounded=0;orthogonalLoop=1;jettySize=auto;html=1;" edge="1" parent="1" source="R6okjfki8fJjkLBU8PFX-27" target="R6okjfki8fJjkLBU8PFX-29">
          <mxGeometry relative="1" as="geometry">
            <mxPoint x="240" y="190" as="targetPoint" />
          </mxGeometry>
        </mxCell>
        <mxCell id="R6okjfki8fJjkLBU8PFX-26" value="&lt;div&gt;No&lt;/div&gt;" style="edgeLabel;html=1;align=center;verticalAlign=middle;resizable=0;points=[];" vertex="1" connectable="0" parent="R6okjfki8fJjkLBU8PFX-25">
          <mxGeometry x="-0.528" y="-3" relative="1" as="geometry">
            <mxPoint as="offset" />
          </mxGeometry>
        </mxCell>
        <mxCell id="R6okjfki8fJjkLBU8PFX-27" value="&lt;div&gt;Input data&lt;/div&gt;&lt;div&gt;is valid?&lt;br&gt;&lt;/div&gt;" style="rhombus;whiteSpace=wrap;html=1;" vertex="1" parent="1">
          <mxGeometry x="387.5" y="250" width="95" height="80" as="geometry" />
        </mxCell>
        <mxCell id="R6okjfki8fJjkLBU8PFX-28" style="edgeStyle=orthogonalEdgeStyle;rounded=0;orthogonalLoop=1;jettySize=auto;html=1;" edge="1" parent="1" source="R6okjfki8fJjkLBU8PFX-29">
          <mxGeometry relative="1" as="geometry">
            <mxPoint x="430" y="80" as="targetPoint" />
            <Array as="points">
              <mxPoint x="240" y="80" />
            </Array>
          </mxGeometry>
        </mxCell>
        <mxCell id="R6okjfki8fJjkLBU8PFX-29" value="Warning (&quot;Your {invalid element} is invalid&quot;)" style="rounded=0;whiteSpace=wrap;html=1;" vertex="1" parent="1">
          <mxGeometry x="170" y="170" width="120" height="60" as="geometry" />
        </mxCell>
        <mxCell id="R6okjfki8fJjkLBU8PFX-30" value="" style="edgeStyle=orthogonalEdgeStyle;rounded=0;orthogonalLoop=1;jettySize=auto;html=1;" edge="1" parent="1" source="R6okjfki8fJjkLBU8PFX-31" target="R6okjfki8fJjkLBU8PFX-33">
          <mxGeometry relative="1" as="geometry" />
        </mxCell>
        <mxCell id="R6okjfki8fJjkLBU8PFX-31" value="Alarm(&quot;You have been logined&quot;)" style="whiteSpace=wrap;html=1;" vertex="1" parent="1">
          <mxGeometry x="380" y="990" width="120" height="60" as="geometry" />
        </mxCell>
        <mxCell id="R6okjfki8fJjkLBU8PFX-32" style="edgeStyle=orthogonalEdgeStyle;rounded=0;orthogonalLoop=1;jettySize=auto;html=1;entryX=0.5;entryY=0;entryDx=0;entryDy=0;" edge="1" parent="1" source="R6okjfki8fJjkLBU8PFX-33" target="R6okjfki8fJjkLBU8PFX-34">
          <mxGeometry relative="1" as="geometry" />
        </mxCell>
        <mxCell id="R6okjfki8fJjkLBU8PFX-33" value="Redirect to account" style="whiteSpace=wrap;html=1;" vertex="1" parent="1">
          <mxGeometry x="380" y="1070" width="120" height="60" as="geometry" />
        </mxCell>
        <mxCell id="R6okjfki8fJjkLBU8PFX-34" value="&lt;font style=&quot;font-size: 21px;&quot;&gt;Start&lt;/font&gt;" style="rounded=1;whiteSpace=wrap;html=1;glass=0;shadow=0;arcSize=50;" vertex="1" parent="1">
          <mxGeometry x="375" y="1150" width="130" height="60" as="geometry" />
        </mxCell>
        <mxCell id="R6okjfki8fJjkLBU8PFX-38" style="edgeStyle=orthogonalEdgeStyle;rounded=0;orthogonalLoop=1;jettySize=auto;html=1;exitX=0;exitY=0.5;exitDx=0;exitDy=0;" edge="1" parent="1" source="R6okjfki8fJjkLBU8PFX-40">
          <mxGeometry relative="1" as="geometry">
            <mxPoint x="430" y="80" as="targetPoint" />
            <mxPoint x="120" y="730" as="sourcePoint" />
            <Array as="points">
              <mxPoint x="110" y="725" />
              <mxPoint x="110" y="80" />
            </Array>
          </mxGeometry>
        </mxCell>
        <mxCell id="R6okjfki8fJjkLBU8PFX-42" value="&amp;gt;" style="edgeLabel;html=1;align=center;verticalAlign=middle;resizable=0;points=[];" vertex="1" connectable="0" parent="R6okjfki8fJjkLBU8PFX-38">
          <mxGeometry x="0.4985" y="1" relative="1" as="geometry">
            <mxPoint as="offset" />
          </mxGeometry>
        </mxCell>
        <mxCell id="R6okjfki8fJjkLBU8PFX-41" value="" style="edgeStyle=orthogonalEdgeStyle;rounded=0;orthogonalLoop=1;jettySize=auto;html=1;" edge="1" parent="1" source="R6okjfki8fJjkLBU8PFX-36" target="R6okjfki8fJjkLBU8PFX-40">
          <mxGeometry relative="1" as="geometry" />
        </mxCell>
        <mxCell id="R6okjfki8fJjkLBU8PFX-49" value="No" style="edgeLabel;html=1;align=center;verticalAlign=middle;resizable=0;points=[];" vertex="1" connectable="0" parent="R6okjfki8fJjkLBU8PFX-41">
          <mxGeometry x="-0.1014" y="-2" relative="1" as="geometry">
            <mxPoint as="offset" />
          </mxGeometry>
        </mxCell>
        <mxCell id="R6okjfki8fJjkLBU8PFX-44" value="" style="edgeStyle=orthogonalEdgeStyle;rounded=0;orthogonalLoop=1;jettySize=auto;html=1;" edge="1" parent="1" source="R6okjfki8fJjkLBU8PFX-36" target="R6okjfki8fJjkLBU8PFX-43">
          <mxGeometry relative="1" as="geometry" />
        </mxCell>
        <mxCell id="R6okjfki8fJjkLBU8PFX-50" value="Yes" style="edgeLabel;html=1;align=center;verticalAlign=middle;resizable=0;points=[];" vertex="1" connectable="0" parent="R6okjfki8fJjkLBU8PFX-44">
          <mxGeometry x="-0.4861" y="2" relative="1" as="geometry">
            <mxPoint as="offset" />
          </mxGeometry>
        </mxCell>
        <mxCell id="R6okjfki8fJjkLBU8PFX-36" value="&lt;div align=&quot;center&quot;&gt;&lt;font style=&quot;font-size: 11px;&quot;&gt;Does result&lt;/font&gt;&lt;br&gt;&lt;font style=&quot;font-size: 11px;&quot;&gt;contains&amp;nbsp;&lt;/font&gt;&lt;/div&gt;&lt;div align=&quot;center&quot;&gt;&lt;font style=&quot;font-size: 11px;&quot;&gt;record?&lt;/font&gt;&lt;/div&gt;" style="rhombus;whiteSpace=wrap;html=1;align=center;" vertex="1" parent="1">
          <mxGeometry x="368.75" y="690" width="132.5" height="70" as="geometry" />
        </mxCell>
        <mxCell id="R6okjfki8fJjkLBU8PFX-40" value="Warning(&quot;There is no users with {login} login&quot;)" style="whiteSpace=wrap;html=1;" vertex="1" parent="1">
          <mxGeometry x="162.5" y="695" width="120" height="60" as="geometry" />
        </mxCell>
        <mxCell id="R6okjfki8fJjkLBU8PFX-46" value="" style="edgeStyle=orthogonalEdgeStyle;rounded=0;orthogonalLoop=1;jettySize=auto;html=1;" edge="1" parent="1" source="R6okjfki8fJjkLBU8PFX-43" target="R6okjfki8fJjkLBU8PFX-45">
          <mxGeometry relative="1" as="geometry" />
        </mxCell>
        <mxCell id="R6okjfki8fJjkLBU8PFX-51" value="No" style="edgeLabel;html=1;align=center;verticalAlign=middle;resizable=0;points=[];" vertex="1" connectable="0" parent="R6okjfki8fJjkLBU8PFX-46">
          <mxGeometry x="-0.0044" relative="1" as="geometry">
            <mxPoint as="offset" />
          </mxGeometry>
        </mxCell>
        <mxCell id="R6okjfki8fJjkLBU8PFX-52" style="edgeStyle=orthogonalEdgeStyle;rounded=0;orthogonalLoop=1;jettySize=auto;html=1;" edge="1" parent="1" source="R6okjfki8fJjkLBU8PFX-43" target="R6okjfki8fJjkLBU8PFX-31">
          <mxGeometry relative="1" as="geometry">
            <Array as="points">
              <mxPoint x="650" y="835" />
              <mxPoint x="650" y="1020" />
            </Array>
          </mxGeometry>
        </mxCell>
        <mxCell id="R6okjfki8fJjkLBU8PFX-53" value="Yes" style="edgeLabel;html=1;align=center;verticalAlign=middle;resizable=0;points=[];" vertex="1" connectable="0" parent="R6okjfki8fJjkLBU8PFX-52">
          <mxGeometry x="-0.5845" y="2" relative="1" as="geometry">
            <mxPoint as="offset" />
          </mxGeometry>
        </mxCell>
        <mxCell id="R6okjfki8fJjkLBU8PFX-43" value="&lt;div align=&quot;center&quot;&gt;Does the&amp;nbsp;&lt;/div&gt;&lt;div align=&quot;center&quot;&gt;passwords&amp;nbsp;&lt;/div&gt;&lt;div align=&quot;center&quot;&gt;match&lt;font style=&quot;font-size: 11px;&quot;&gt;?&lt;/font&gt;&lt;/div&gt;" style="rhombus;whiteSpace=wrap;html=1;align=center;" vertex="1" parent="1">
          <mxGeometry x="502.5" y="800" width="132.5" height="70" as="geometry" />
        </mxCell>
        <mxCell id="R6okjfki8fJjkLBU8PFX-47" style="edgeStyle=orthogonalEdgeStyle;rounded=0;orthogonalLoop=1;jettySize=auto;html=1;" edge="1" parent="1" source="R6okjfki8fJjkLBU8PFX-45">
          <mxGeometry relative="1" as="geometry">
            <mxPoint x="110" y="680" as="targetPoint" />
          </mxGeometry>
        </mxCell>
        <mxCell id="R6okjfki8fJjkLBU8PFX-48" value="^" style="edgeLabel;html=1;align=center;verticalAlign=middle;resizable=0;points=[];" vertex="1" connectable="0" parent="R6okjfki8fJjkLBU8PFX-47">
          <mxGeometry x="0.3441" relative="1" as="geometry">
            <mxPoint as="offset" />
          </mxGeometry>
        </mxCell>
        <mxCell id="R6okjfki8fJjkLBU8PFX-45" value="Warning(&quot;Your password is incorrect&quot;)" style="whiteSpace=wrap;html=1;" vertex="1" parent="1">
          <mxGeometry x="296.25" y="805" width="120" height="60" as="geometry" />
        </mxCell>
      </root>
    </mxGraphModel>
  </diagram>
</mxfile>
